<?xml version="1.0" encoding="UTF-8" standalone="no"?>
<svg
   xmlns:dc="http://purl.org/dc/elements/1.1/"
   xmlns:cc="http://creativecommons.org/ns#"
   xmlns:rdf="http://www.w3.org/1999/02/22-rdf-syntax-ns#"
   xmlns:svg="http://www.w3.org/2000/svg"
   xmlns="http://www.w3.org/2000/svg"
   xmlns:sodipodi="http://sodipodi.sourceforge.net/DTD/sodipodi-0.dtd"
   xmlns:inkscape="http://www.inkscape.org/namespaces/inkscape"
   width="128"
   height="128"
   viewBox="0 0 33.866666 33.866666"
   version="1.1"
   id="svg8"
   inkscape:version="1.0.1 (3bc2e813f5, 2020-09-07)"
   sodipodi:docname="cancel.svg">
  <defs
     id="defs2" />
  <sodipodi:namedview
     id="base"
     pagecolor="#ffffff"
     bordercolor="#666666"
     borderopacity="1.0"
     inkscape:pageopacity="0.0"
     inkscape:pageshadow="2"
     inkscape:zoom="2.8284272"
     inkscape:cx="70.109373"
     inkscape:cy="70.361339"
     inkscape:document-units="px"
     inkscape:current-layer="layer1"
     inkscape:document-rotation="0"
     showgrid="false"
     units="px"
     inkscape:window-width="1280"
     inkscape:window-height="1001"
     inkscape:window-x="792"
     inkscape:window-y="-8"
     inkscape:window-maximized="1"
     inkscape:snap-bbox="false" />
  <metadata
     id="metadata5">
    <rdf:RDF>
      <cc:Work
         rdf:about="">
        <dc:format>image/svg+xml</dc:format>
        <dc:type
           rdf:resource="http://purl.org/dc/dcmitype/StillImage" />
        <dc:title></dc:title>
      </cc:Work>
    </rdf:RDF>
  </metadata>
  <g
     inkscape:label="Layer 1"
     inkscape:groupmode="layer"
     id="layer1">
    <path
       id="rect10"
       style="fill:#ffffff;fill-rule:evenodd;stroke-width:1.11313"
       d="M 16 0 C 7.1360004 0 2.3684758e-15 7.1360004 0 16 L 0 112 C 0 120.864 7.1360004 128 16 128 L 112 128 C 120.864 128 128 120.864 128 112 L 128 16 C 128 7.1360004 120.864 2.3684758e-15 112 0 L 16 0 z M 64 30 A 34.000001 34.000001 0 0 1 98 64 A 34.000001 34.000001 0 0 1 64 98 A 34.000001 34.000001 0 0 1 30 64 A 34.000001 34.000001 0 0 1 64 30 z M 63.859375 38.5 A 25.5 25.5 0 0 0 38.5 64 A 25.5 25.5 0 0 0 64 89.5 A 25.5 25.5 0 0 0 89.5 64 A 25.5 25.5 0 0 0 64 38.5 A 25.5 25.5 0 0 0 63.859375 38.5 z M 63.986328 51.5 A 12.5 12.5 0 0 1 64 51.5 A 12.5 12.5 0 0 1 76.5 64 A 12.5 12.5 0 0 1 64 76.5 A 12.5 12.5 0 0 1 51.5 64 A 12.5 12.5 0 0 1 63.986328 51.5 z "
       transform="scale(0.26458333)" />
  </g>
</svg>
