<?xml version="1.0" encoding="UTF-8" standalone="no"?>
<svg
   xmlns:dc="http://purl.org/dc/elements/1.1/"
   xmlns:cc="http://creativecommons.org/ns#"
   xmlns:rdf="http://www.w3.org/1999/02/22-rdf-syntax-ns#"
   xmlns:svg="http://www.w3.org/2000/svg"
   xmlns="http://www.w3.org/2000/svg"
   xmlns:sodipodi="http://sodipodi.sourceforge.net/DTD/sodipodi-0.dtd"
   xmlns:inkscape="http://www.inkscape.org/namespaces/inkscape"
   width="128"
   height="128"
   viewBox="0 0 33.866666 33.866666"
   version="1.1"
   id="svg8"
   inkscape:version="1.0.1 (3bc2e813f5, 2020-09-07)"
   sodipodi:docname="logout.svg">
  <defs
     id="defs2" />
  <sodipodi:namedview
     id="base"
     pagecolor="#ffffff"
     bordercolor="#666666"
     borderopacity="1.0"
     inkscape:pageopacity="0.0"
     inkscape:pageshadow="2"
     inkscape:zoom="2.8284272"
     inkscape:cx="113.36763"
     inkscape:cy="89.09961"
     inkscape:document-units="mm"
     inkscape:current-layer="layer1"
     inkscape:document-rotation="0"
     showgrid="false"
     units="px"
     inkscape:window-width="1280"
     inkscape:window-height="1001"
     inkscape:window-x="792"
     inkscape:window-y="-8"
     inkscape:window-maximized="1"
     inkscape:snap-bbox="false" />
  <metadata
     id="metadata5">
    <rdf:RDF>
      <cc:Work
         rdf:about="">
        <dc:format>image/svg+xml</dc:format>
        <dc:type
           rdf:resource="http://purl.org/dc/dcmitype/StillImage" />
        <dc:title></dc:title>
      </cc:Work>
    </rdf:RDF>
  </metadata>
  <g
     inkscape:label="Layer 1"
     inkscape:groupmode="layer"
     id="layer1">
    <path
       id="rect10-3"
       style="fill:#ffffff;fill-rule:evenodd;stroke-width:0.294516"
       d="M 4.2333335,6.8333333e-7 C 1.8880669,6.8333333e-7 2.1333333e-7,1.8880677 2.1333333e-7,4.233334 V 29.633333 C 2.1333333e-7,31.978602 1.8880669,33.866666 4.2333335,33.866666 H 29.633333 c 2.345267,0 4.233333,-1.888064 4.233333,-4.233333 V 4.233334 C 33.866666,1.8880677 31.9786,6.8333333e-7 29.633333,6.8333333e-7 Z M 4.828646,0.79375068 h 24.209375 c 2.235332,0 4.034895,1.79956492 4.034895,4.03489632 V 29.03802 c 0,2.235332 -1.799563,4.034896 -4.034895,4.034896 H 4.828646 c -2.2353323,0 -4.0348958,-1.799564 -4.0348958,-4.034896 V 4.828647 c 0,-2.2353314 1.7995635,-4.03489632 4.0348958,-4.03489632 z" />
    <path
       id="rect209"
       style="fill:#ffffff;stroke-width:0.999999"
       d="M 64 30 A 33.999999 33.999999 0 0 0 30 64 A 33.999999 33.999999 0 0 0 64 98 A 33.999999 33.999999 0 0 0 98 64 L 89.5 64 A 25.499999 25.499999 0 0 1 64 89.5 A 25.499999 25.499999 0 0 1 38.5 64 A 25.499999 25.499999 0 0 1 64 38.5 L 64 30 z M 74 30 L 82.996094 38.996094 L 60.996094 60.996094 L 67.003906 67.003906 L 89.003906 45.003906 L 98 54 L 98 30 L 74 30 z "
       transform="scale(0.26458333)" />
  </g>
</svg>
