<?xml version="1.0" encoding="UTF-8" standalone="no"?>
<svg
   xmlns:dc="http://purl.org/dc/elements/1.1/"
   xmlns:cc="http://creativecommons.org/ns#"
   xmlns:rdf="http://www.w3.org/1999/02/22-rdf-syntax-ns#"
   xmlns:svg="http://www.w3.org/2000/svg"
   xmlns="http://www.w3.org/2000/svg"
   xmlns:sodipodi="http://sodipodi.sourceforge.net/DTD/sodipodi-0.dtd"
   xmlns:inkscape="http://www.inkscape.org/namespaces/inkscape"
   width="128"
   height="128"
   viewBox="0 0 33.866666 33.866666"
   version="1.1"
   id="svg8"
   inkscape:version="1.0.1 (3bc2e813f5, 2020-09-07)"
   sodipodi:docname="powerShutdown.svg">
  <defs
     id="defs2" />
  <sodipodi:namedview
     id="base"
     pagecolor="#ffffff"
     bordercolor="#666666"
     borderopacity="1.0"
     inkscape:pageopacity="0.0"
     inkscape:pageshadow="2"
     inkscape:zoom="1.4142136"
     inkscape:cx="103.56153"
     inkscape:cy="78.760728"
     inkscape:document-units="mm"
     inkscape:current-layer="layer1"
     inkscape:document-rotation="0"
     showgrid="false"
     units="px"
     inkscape:window-width="1280"
     inkscape:window-height="1001"
     inkscape:window-x="792"
     inkscape:window-y="-8"
     inkscape:window-maximized="1"
     inkscape:snap-bbox="false" />
  <metadata
     id="metadata5">
    <rdf:RDF>
      <cc:Work
         rdf:about="">
        <dc:format>image/svg+xml</dc:format>
        <dc:type
           rdf:resource="http://purl.org/dc/dcmitype/StillImage" />
        <dc:title></dc:title>
      </cc:Work>
    </rdf:RDF>
  </metadata>
  <g
     inkscape:label="Layer 1"
     inkscape:groupmode="layer"
     id="layer1">
    <path
       id="rect10"
       style="fill:#ffffff;fill-rule:evenodd;stroke-width:0.294516"
       d="M 4.2333335,5.9749999e-7 C 1.8880665,5.9749999e-7 4.9999999e-7,1.8880674 4.9999999e-7,4.2333338 V 29.633333 C 4.9999999e-7,31.9786 1.8880665,33.866666 4.2333335,33.866666 H 29.633333 c 2.345266,0 4.233333,-1.888066 4.233333,-4.233333 V 4.2333338 C 33.866666,1.8880674 31.978599,5.9749999e-7 29.633333,5.9749999e-7 Z M 16.933333,7.9375004 v 2.2489586 a 6.7468747,6.7468747 0 0 0 -6.746875,6.746874 6.7468747,6.7468747 0 0 0 6.746875,6.746875 6.7468747,6.7468747 0 0 0 6.746875,-6.746875 h 2.248958 A 8.995833,8.995833 0 0 1 16.933333,25.929167 8.995833,8.995833 0 0 1 7.9374991,16.933333 8.995833,8.995833 0 0 1 16.933333,7.9375004 Z m 2.645833,0 h 6.35 V 14.2875 l -2.380217,-2.380216 -5.820833,5.820833 -1.589567,-1.589567 5.820833,-5.820833 z" />
  </g>
</svg>
