<?xml version="1.0" encoding="UTF-8" standalone="no"?>
<svg
   xmlns:dc="http://purl.org/dc/elements/1.1/"
   xmlns:cc="http://creativecommons.org/ns#"
   xmlns:rdf="http://www.w3.org/1999/02/22-rdf-syntax-ns#"
   xmlns:svg="http://www.w3.org/2000/svg"
   xmlns="http://www.w3.org/2000/svg"
   xmlns:sodipodi="http://sodipodi.sourceforge.net/DTD/sodipodi-0.dtd"
   xmlns:inkscape="http://www.inkscape.org/namespaces/inkscape"
   width="128"
   height="128"
   viewBox="0 0 33.866666 33.866666"
   version="1.1"
   id="svg8"
   inkscape:version="1.0.1 (3bc2e813f5, 2020-09-07)"
   sodipodi:docname="reboot.svg">
  <defs
     id="defs2" />
  <sodipodi:namedview
     id="base"
     pagecolor="#ffffff"
     bordercolor="#666666"
     borderopacity="1.0"
     inkscape:pageopacity="0.0"
     inkscape:pageshadow="2"
     inkscape:zoom="1.4142136"
     inkscape:cx="158.10879"
     inkscape:cy="83.604182"
     inkscape:document-units="px"
     inkscape:current-layer="layer1"
     inkscape:document-rotation="0"
     showgrid="false"
     units="px"
     inkscape:window-width="1280"
     inkscape:window-height="1001"
     inkscape:window-x="792"
     inkscape:window-y="-8"
     inkscape:window-maximized="1"
     inkscape:snap-bbox="false" />
  <metadata
     id="metadata5">
    <rdf:RDF>
      <cc:Work
         rdf:about="">
        <dc:format>image/svg+xml</dc:format>
        <dc:type
           rdf:resource="http://purl.org/dc/dcmitype/StillImage" />
        <dc:title></dc:title>
      </cc:Work>
    </rdf:RDF>
  </metadata>
  <g
     inkscape:label="Layer 1"
     inkscape:groupmode="layer"
     id="layer1">
    <path
       id="rect10-3"
       style="fill:#ffffff;fill-rule:evenodd;stroke-width:0.294516"
       d="M 4.2333332,-5e-7 C 1.8880665,-5e-7 -1.1999999e-7,1.8880655 -1.1999999e-7,4.2333325 V 29.633333 C -1.1999999e-7,31.9786 1.8880665,33.866666 4.2333332,33.866666 H 29.633333 c 2.345266,0 4.233333,-1.888066 4.233333,-4.233333 V 4.2333325 c 0,-2.345267 -1.888067,-4.233333 -4.233333,-4.233333 z m 0.5953125,0.79375 H 29.03802 c 2.235333,0 4.034896,1.799563 4.034896,4.034896 V 29.038021 c 0,2.235329 -1.799563,4.034895 -4.034896,4.034895 H 4.8286457 c -2.2353323,0 -4.03489583,-1.799566 -4.03489583,-4.034895 V 4.8286455 c 0,-2.235333 1.79956353,-4.034896 4.03489583,-4.034896 z" />
    <path
       id="rect268"
       style="fill:#ffffff;stroke-width:0.999999"
       d="M 4.25 4.75 L 4.25 5.1445312 C 4.3704647 5.0141373 4.4827074 4.8762966 4.6074219 4.75 L 4.25 4.75 z M 123.39258 4.75 C 123.51729 4.8762966 123.62954 5.0141373 123.75 5.1445312 L 123.75 4.75 L 123.39258 4.75 z M 85.398438 26.851562 L 80.884766 34.488281 A 34.000001 34.000001 0 0 0 64 30 A 34.000001 34.000001 0 0 0 30 64 A 34.000001 34.000001 0 0 0 64 98 A 34.000001 34.000001 0 0 0 98 64 L 89.5 64 A 25.5 25.5 0 0 1 64 89.5 A 25.5 25.5 0 0 1 38.5 64 A 25.5 25.5 0 0 1 63.859375 38.5 A 25.5 25.5 0 0 1 64 38.5 A 25.5 25.5 0 0 1 76.626953 41.847656 L 72.421875 49.132812 L 98.003906 49.134766 L 94.490234 42.595703 L 85.398438 26.851562 z M 4.25 122.85547 L 4.25 123.25 L 4.6074219 123.25 C 4.4827074 123.1237 4.3704647 122.98586 4.25 122.85547 z M 123.75 122.85547 C 123.62954 122.98586 123.51729 123.1237 123.39258 123.25 L 123.75 123.25 L 123.75 122.85547 z "
       transform="scale(0.26458333)" />
  </g>
</svg>
