<?xml version="1.0" encoding="UTF-8" standalone="no"?>
<svg
   xmlns:dc="http://purl.org/dc/elements/1.1/"
   xmlns:cc="http://creativecommons.org/ns#"
   xmlns:rdf="http://www.w3.org/1999/02/22-rdf-syntax-ns#"
   xmlns:svg="http://www.w3.org/2000/svg"
   xmlns="http://www.w3.org/2000/svg"
   xmlns:sodipodi="http://sodipodi.sourceforge.net/DTD/sodipodi-0.dtd"
   xmlns:inkscape="http://www.inkscape.org/namespaces/inkscape"
   width="128"
   height="128"
   viewBox="0 0 33.866666 33.866666"
   version="1.1"
   id="svg8"
   inkscape:version="1.0.1 (3bc2e813f5, 2020-09-07)"
   sodipodi:docname="shutdown.svg">
  <defs
     id="defs2" />
  <sodipodi:namedview
     id="base"
     pagecolor="#ffffff"
     bordercolor="#666666"
     borderopacity="1.0"
     inkscape:pageopacity="0.0"
     inkscape:pageshadow="2"
     inkscape:zoom="2.0000001"
     inkscape:cx="58.983352"
     inkscape:cy="67.296527"
     inkscape:document-units="mm"
     inkscape:current-layer="layer1"
     inkscape:document-rotation="0"
     showgrid="false"
     units="px"
     inkscape:window-width="1280"
     inkscape:window-height="1001"
     inkscape:window-x="792"
     inkscape:window-y="-8"
     inkscape:window-maximized="1"
     inkscape:snap-bbox="false" />
  <metadata
     id="metadata5">
    <rdf:RDF>
      <cc:Work
         rdf:about="">
        <dc:format>image/svg+xml</dc:format>
        <dc:type
           rdf:resource="http://purl.org/dc/dcmitype/StillImage" />
        <dc:title></dc:title>
      </cc:Work>
    </rdf:RDF>
  </metadata>
  <g
     inkscape:label="Layer 1"
     inkscape:groupmode="layer"
     id="layer1">
    <path
       id="rect10-5"
       style="fill:#ffffff;fill-rule:evenodd;stroke-width:0.294516"
       d="M 4.2333335,4.8333333e-7 C 1.8880669,4.8333333e-7 2.1333333e-7,1.8880682 2.1333333e-7,4.2333342 V 29.633333 C 2.1333333e-7,31.9786 1.8880669,33.866666 4.2333335,33.866666 H 29.633333 c 2.345269,0 4.233333,-1.888066 4.233333,-4.233333 V 4.2333342 C 33.866666,1.8880682 31.978602,4.8333333e-7 29.633333,4.8333333e-7 Z M 4.828646,0.79375038 h 24.209375 c 2.235335,0 4.034895,1.79956442 4.034895,4.03489582 V 29.038021 c 0,2.235332 -1.79956,4.034896 -4.034895,4.034896 H 4.828646 c -2.2353323,0 -4.0348958,-1.799564 -4.0348958,-4.034896 V 4.8286462 c 0,-2.2353314 1.7995635,-4.03489582 4.0348958,-4.03489582 z" />
    <path
       id="rect327"
       style="fill:#ffffff;stroke-width:0.999999"
       d="M 59.75 26 L 59.75 60 L 68.25 60 L 68.25 26 L 59.75 26 z M 55.75 31.017578 A 33.999999 33.999999 0 0 0 30 64 A 33.999999 33.999999 0 0 0 64 98 A 33.999999 33.999999 0 0 0 98 64 A 33.999999 33.999999 0 0 0 72.25 31.017578 L 72.25 39.871094 A 25.499999 25.499999 0 0 1 89.5 64 A 25.499999 25.499999 0 0 1 64 89.5 A 25.499999 25.499999 0 0 1 38.5 64 A 25.499999 25.499999 0 0 1 55.75 39.873047 L 55.75 31.017578 z "
       transform="scale(0.26458333)" />
  </g>
</svg>
